<?xml version="1.0"?>
<svg xmlns="http://www.w3.org/2000/svg" xmlns:xlink="http://www.w3.org/1999/xlink" version="1.1" id="Capa_1" x="0px" y="0px" viewBox="0 0 512 512" style="enable-background:new 0 0 512 512;" xml:space="preserve" width="512px" height="512px" class=""><g transform="matrix(0.355161 0 0 0.355161 156.481 165.079)"><path style="fill:#54BBFF;" d="M256,7.5L196,256l60,248.5c137.243,0,248.5-111.257,248.5-248.5S393.243,7.5,256,7.5z" data-original="#54BBFF" class=""/><path style="fill:#8DD2FF;" d="M7.5,256c0,137.243,111.257,248.5,248.5,248.5V7.5C118.757,7.5,7.5,118.757,7.5,256z" data-original="#8DD2FF" class=""/><path style="fill:#0789DE" d="M256,37.5v437c120.674,0,218.5-97.826,218.5-218.5S376.674,37.5,256,37.5z" data-original="#0789DE" class="active-path"/><path style="fill:#54BBFF" d="M444.5,256c0-120.674-84.394-218.5-188.5-218.5C135.326,37.5,37.5,135.326,37.5,256  S135.326,474.5,256,474.5C360.106,474.5,444.5,376.674,444.5,256z" data-original="#2EA2EF" class="" data-old_color="#2EA2EF"/><path style="fill:#FFFFFF;" d="M305.5,391.5c-11.046,0-20-8.954-20-20V237.938l-11.117,25.94C271.231,271.232,264.001,276,256,276  c-8,0-15.231-4.768-18.383-12.122l-11.117-25.94V371.5c0,11.046-8.954,20-20,20s-20-8.954-20-20v-231  c0-9.496,6.677-17.682,15.979-19.592c9.303-1.91,18.664,2.985,22.404,11.713L256,205.228l31.117-72.606  c3.74-8.728,13.106-13.622,22.404-11.713c9.302,1.909,15.979,10.096,15.979,19.592v231C325.5,382.546,316.546,391.5,305.5,391.5z" data-original="#FFFFFF" class=""/><path d="M437.02,74.981C388.668,26.629,324.38,0,256,0S123.333,26.629,74.98,74.981C26.629,123.333,0,187.62,0,256  s26.629,132.667,74.98,181.019C123.333,485.371,187.62,512,256,512s132.668-26.629,181.02-74.981S512,324.38,512,256  S485.371,123.333,437.02,74.981z M256,497C123.112,497,15,388.888,15,256S123.112,15,256,15s241,108.112,241,241  S388.888,497,256,497z" data-original="#000000" class=""/><path d="M415.806,96.194C373.12,53.508,316.366,30,256,30c-54.612,0-107.335,19.748-148.458,55.605  c-3.122,2.722-3.446,7.46-0.724,10.582s7.46,3.445,10.582,0.724C155.791,63.436,205.013,45,256,45c116.346,0,211,94.654,211,211  s-94.654,211-211,211S45,372.346,45,256c0-50.987,18.436-100.209,51.911-138.6c2.722-3.122,2.398-7.86-0.724-10.582  s-7.859-2.399-10.582,0.724C49.748,148.664,30,201.388,30,256c0,60.367,23.508,117.12,66.194,159.806S195.633,482,256,482  c60.366,0,117.12-23.508,159.806-66.194S482,316.367,482,256S458.492,138.88,415.806,96.194z" data-original="#000000" class=""/><path d="M305.5,399c15.163,0,27.5-12.336,27.5-27.5v-231c0-12.996-9.24-24.325-21.971-26.938c-1.821-0.374-3.684-0.563-5.535-0.563  c-11.012,0-20.931,6.543-25.271,16.669L256,186.189l-24.224-56.521c-4.339-10.126-14.257-16.67-25.267-16.67  c-1.853,0-3.717,0.19-5.539,0.564C188.24,116.175,179,127.504,179,140.5v231c0,15.164,12.336,27.5,27.5,27.5s27.5-12.336,27.5-27.5  v-98.994c5.116,6.828,13.209,10.994,22,10.994c8.79,0,16.884-4.166,22-10.994V371.5C278,386.664,290.337,399,305.5,399z   M267.489,260.924c-1.973,4.602-6.482,7.576-11.489,7.576c-5.007,0-9.517-2.974-11.489-7.576l-11.117-25.94  c-1.402-3.273-4.911-5.108-8.401-4.393c-3.488,0.716-5.992,3.786-5.992,7.347V371.5c0,6.893-5.607,12.5-12.5,12.5  s-12.5-5.607-12.5-12.5v-231c0-5.907,4.2-11.057,9.987-12.245c0.832-0.171,1.681-0.258,2.522-0.258  c5.001,0,9.507,2.975,11.479,7.578l31.117,72.606c1.182,2.758,3.894,4.546,6.894,4.546s5.712-1.788,6.894-4.546l31.117-72.606  c1.973-4.603,6.48-7.578,11.483-7.578c0.841,0,1.688,0.086,2.52,0.257C313.8,129.443,318,134.593,318,140.5v231  c0,6.893-5.607,12.5-12.5,12.5s-12.5-5.607-12.5-12.5V237.938c0-3.561-2.504-6.631-5.992-7.347  c-0.505-0.104-1.011-0.154-1.511-0.154c-2.95,0-5.691,1.748-6.891,4.546L267.489,260.924z" data-original="#000000" class=""/></g> </svg>
